<svg width="100" height="18" viewBox="0 0 100 18" fill="none" xmlns="http://www.w3.org/2000/svg">
<path d="M3.26401 17.04C2.20801 17.04 1.40001 16.8 0.840014 16.32C0.280014 15.84 1.41263e-05 15.152 1.41263e-05 14.256C1.41263e-05 13.984 0.0240141 13.696 0.0720142 13.392L1.75201 3.79204C1.97601 2.64004 2.43201 1.76004 3.12001 1.15204C3.80801 0.544038 4.71201 0.240038 5.83201 0.240038H13.512C13.928 0.240038 14.248 0.328038 14.472 0.504039C14.696 0.664039 14.808 0.904038 14.808 1.22404C14.808 1.67204 14.648 2.03204 14.328 2.30404C14.008 2.57604 13.592 2.71204 13.08 2.71204H6.16801C5.84801 2.71204 5.57601 2.81604 5.35201 3.02404C5.14401 3.23204 5.00801 3.52004 4.94401 3.88804L4.34401 7.22404H10.464C10.88 7.22404 11.2 7.31204 11.424 7.48804C11.648 7.64804 11.76 7.88804 11.76 8.20804C11.76 8.65604 11.6 9.01604 11.28 9.28804C10.96 9.56004 10.544 9.69604 10.032 9.69604H3.91201L3.26401 13.392C3.24801 13.472 3.24001 13.584 3.24001 13.728C3.24001 14 3.31201 14.208 3.45601 14.352C3.60001 14.496 3.80801 14.568 4.08001 14.568H11.52C11.936 14.568 12.256 14.656 12.48 14.832C12.704 14.992 12.816 15.232 12.816 15.552C12.816 16 12.656 16.36 12.336 16.632C12.016 16.904 11.6 17.04 11.088 17.04H3.26401ZM17.3089 3.79204C17.7089 1.42404 19.1409 0.240038 21.6049 0.240038H25.8769C27.8449 0.240038 29.3889 0.624038 30.5089 1.39204C31.6449 2.14404 32.2129 3.23204 32.2129 4.65604C32.2129 5.90404 31.9089 7.03204 31.3009 8.04004C30.7089 9.03204 29.9009 9.81604 28.8769 10.392C27.8689 10.952 26.7569 11.232 25.5409 11.232L28.5409 14.856C28.7329 15.064 28.8289 15.32 28.8289 15.624C28.8289 15.848 28.7649 16.072 28.6369 16.296C28.5249 16.504 28.3569 16.688 28.1329 16.848C27.7329 17.12 27.3569 17.256 27.0049 17.256C26.5249 17.256 26.1249 17.048 25.8049 16.632L21.5569 11.328H19.1569L18.3649 15.84C18.2849 16.288 18.0689 16.64 17.7169 16.896C17.3649 17.152 16.9569 17.28 16.4929 17.28C16.0769 17.28 15.7489 17.184 15.5089 16.992C15.2689 16.784 15.1489 16.504 15.1489 16.152C15.1489 16.024 15.1569 15.92 15.1729 15.84L17.3089 3.79204ZM24.2449 8.85604C25.8129 8.85604 26.9889 8.56804 27.7729 7.99204C28.5569 7.41604 28.9489 6.42404 28.9489 5.01604C28.9489 4.15204 28.6289 3.55204 27.9889 3.21604C27.3489 2.88004 26.4689 2.71204 25.3489 2.71204H21.7249C21.3889 2.71204 21.1169 2.81604 20.9089 3.02404C20.7009 3.23204 20.5569 3.52004 20.4769 3.88804L19.5889 8.85604H24.2449ZM33.9694 17.28C33.5534 17.28 33.2254 17.184 32.9854 16.992C32.7454 16.784 32.6254 16.504 32.6254 16.152C32.6254 16.024 32.6334 15.92 32.6494 15.84L34.2334 6.79204C34.6334 4.53604 35.5454 2.84004 36.9694 1.70404C38.4094 0.568038 40.3534 3.8147e-05 42.8014 3.8147e-05C44.1454 3.8147e-05 45.3054 0.232038 46.2814 0.696038C47.2734 1.14404 48.0334 1.78404 48.5614 2.61604C49.1054 3.44804 49.3774 4.41604 49.3774 5.52004C49.3774 5.88804 49.3374 6.31204 49.2574 6.79204L47.6734 15.84C47.5934 16.288 47.3854 16.64 47.0494 16.896C46.7134 17.152 46.3054 17.28 45.8254 17.28C45.4094 17.28 45.0734 17.176 44.8174 16.968C44.5774 16.76 44.4574 16.48 44.4574 16.128C44.4574 16 44.4654 15.904 44.4814 15.84L46.0894 6.72004C46.1694 6.27204 46.2094 5.89604 46.2094 5.59204C46.2094 3.54404 44.9774 2.52004 42.5134 2.52004C41.1054 2.52004 39.9694 2.88004 39.1054 3.60004C38.2414 4.32004 37.6894 5.36004 37.4494 6.72004L35.8414 15.84C35.7614 16.272 35.5454 16.624 35.1934 16.896C34.8574 17.152 34.4494 17.28 33.9694 17.28ZM53.8487 17.04C52.7927 17.04 51.9847 16.8 51.4247 16.32C50.8647 15.84 50.5847 15.152 50.5847 14.256C50.5847 13.984 50.6087 13.696 50.6567 13.392L52.3367 3.79204C52.5607 2.64004 53.0167 1.76004 53.7047 1.15204C54.3927 0.544038 55.2967 0.240038 56.4167 0.240038H64.0967C64.5127 0.240038 64.8327 0.328038 65.0567 0.504039C65.2807 0.664039 65.3927 0.904038 65.3927 1.22404C65.3927 1.67204 65.2327 2.03204 64.9127 2.30404C64.5927 2.57604 64.1767 2.71204 63.6647 2.71204H56.7527C56.4327 2.71204 56.1607 2.81604 55.9367 3.02404C55.7287 3.23204 55.5927 3.52004 55.5287 3.88804L54.9287 7.22404H61.0487C61.4647 7.22404 61.7847 7.31204 62.0087 7.48804C62.2327 7.64804 62.3447 7.88804 62.3447 8.20804C62.3447 8.65604 62.1847 9.01604 61.8647 9.28804C61.5447 9.56004 61.1287 9.69604 60.6167 9.69604H54.4967L53.8487 13.392C53.8327 13.472 53.8247 13.584 53.8247 13.728C53.8247 14 53.8967 14.208 54.0407 14.352C54.1847 14.496 54.3927 14.568 54.6647 14.568H62.1047C62.5207 14.568 62.8407 14.656 63.0647 14.832C63.2887 14.992 63.4007 15.232 63.4007 15.552C63.4007 16 63.2407 16.36 62.9207 16.632C62.6007 16.904 62.1847 17.04 61.6727 17.04H53.8487ZM74.0376 17.28C72.8856 17.28 71.7576 17.152 70.6536 16.896C69.5496 16.624 68.5976 16.256 67.7976 15.792C67.0136 15.328 66.4696 14.816 66.1656 14.256C66.0216 13.984 65.9496 13.728 65.9496 13.488C65.9496 13.072 66.1416 12.72 66.5256 12.432C66.7976 12.208 67.0936 12.096 67.4136 12.096C67.8456 12.096 68.2376 12.264 68.5896 12.6C69.4856 13.4 70.3096 13.96 71.0616 14.28C71.8136 14.6 72.6856 14.76 73.6776 14.76C74.9416 14.76 75.9496 14.544 76.7016 14.112C77.4536 13.664 77.8296 13.072 77.8296 12.336C77.8296 11.952 77.7096 11.624 77.4696 11.352C77.2456 11.08 76.8696 10.832 76.3416 10.608C75.8136 10.384 75.0616 10.144 74.0856 9.88804C71.9096 9.32804 70.3576 8.68804 69.4296 7.96804C68.5016 7.24804 68.0376 6.32004 68.0376 5.18404C68.0376 4.19204 68.3576 3.30404 68.9976 2.52004C69.6376 1.72004 70.5256 1.10404 71.6616 0.672038C72.7976 0.224038 74.0776 3.8147e-05 75.5016 3.8147e-05C77.0536 3.8147e-05 78.4136 0.264038 79.5816 0.792038C80.7656 1.30404 81.5256 1.97604 81.8616 2.80804C81.9576 3.01604 82.0056 3.23204 82.0056 3.45604C82.0056 3.95204 81.7496 4.36004 81.2376 4.68004C80.9976 4.82404 80.7496 4.89604 80.4936 4.89604C80.2696 4.89604 80.0536 4.84804 79.8456 4.75204C79.6376 4.64004 79.4696 4.49604 79.3416 4.32004C78.8936 3.71204 78.3336 3.26404 77.6616 2.97604C76.9896 2.67204 76.1896 2.52004 75.2616 2.52004C74.0616 2.52004 73.1016 2.72004 72.3816 3.12004C71.6616 3.52004 71.3016 4.05604 71.3016 4.72804C71.3016 5.08004 71.4056 5.38404 71.6136 5.64004C71.8376 5.89604 72.2056 6.13604 72.7176 6.36004C73.2456 6.56804 74.0056 6.80804 74.9976 7.08004C76.6136 7.54404 77.8536 7.99204 78.7176 8.42404C79.5976 8.84004 80.2136 9.32804 80.5656 9.88804C80.9336 10.432 81.1176 11.12 81.1176 11.952C81.1176 13.008 80.8216 13.944 80.2296 14.76C79.6376 15.56 78.8056 16.184 77.7336 16.632C76.6776 17.064 75.4456 17.28 74.0376 17.28ZM88.996 17.28C88.564 17.28 88.228 17.176 87.988 16.968C87.764 16.744 87.652 16.464 87.652 16.128C87.652 16 87.66 15.904 87.676 15.84L89.98 2.71204H85.348C84.948 2.71204 84.628 2.63204 84.388 2.47204C84.164 2.29604 84.052 2.05604 84.052 1.75204C84.052 1.28804 84.212 0.920039 84.532 0.648038C84.852 0.376038 85.268 0.240038 85.78 0.240038H98.236C98.652 0.240038 98.972 0.328038 99.196 0.504039C99.42 0.664039 99.532 0.904038 99.532 1.22404C99.532 1.67204 99.372 2.03204 99.052 2.30404C98.732 2.57604 98.316 2.71204 97.804 2.71204H93.172L90.868 15.84C90.788 16.272 90.572 16.624 90.22 16.896C89.884 17.152 89.476 17.28 88.996 17.28Z" fill="white"/>
</svg>
